<svg xmlns="http://www.w3.org/2000/svg" viewBox="0 0 702 170" role="img" aria-label="GRUVINK" xmlns:c2pa="http://c2pa.org/manifest"><metadata><c2pa:manifest>AAAWgmp1bWIAAAAeanVtZGMycGEAEQAQgAAAqgA4m3EDYzJwYQAAABZcanVtYgAAAEdqdW1kYzJtYQARABCAAACqADibcQN1cm46YzJwYTo0N2IwYjg1OC0xMTI1LTQwMDYtYTI0Mi1hMTU0MGJhNzY1ZTQAAAADl2p1bWIAAAApanVtZGMyYXMAEQAQgAAAqgA4m3EDYzJwYS5hc3NlcnRpb25zAAAAALxqdW1iAAAARGp1bWRjYm9yABEAEIAAAKoAOJtxE2MycGEuaW5ncmVkaWVudC52MwAAAAAYYzJzaATLBQZJQ1hDBsZBHdM1+AkAAABwY2JvcqNpZGM6Zm9ybWF0bWltYWdlL3N2Zyt4bWxqaW5zdGFuY2VJRHgseG1wOmlpZDo4ZDZmMDQ0YS1iMDNmLTRmMWUtYTM4ZS0yOGJlYjhhNTAxNjRscmVsYXRpb25zaGlwaHBhcmVudE9mAAAB4mp1bWIAAABBanVtZGNib3IAEQAQgAAAqgA4m3ETYzJwYS5hY3Rpb25zLnYyAAAAABhjMnNoTFW+KNNvZRYfW405HWNjIQAAAZljYm9yomdhY3Rpb25zgqJmYWN0aW9ua2MycGEub3BlbmVkanBhcmFtZXRlcnOha2luZ3JlZGllbnRzgaJjdXJseC1zZWxmI2p1bWJmPWMycGEuYXNzZXJ0aW9ucy9jMnBhLmluZ3JlZGllbnQudjNkaGFzaFggP4PDUNjU36cFmBhtgsiMPDvy0BLqErbKiIgQqNOVUOekZmFjdGlvbngdY29tLmFudGhyb3BpYy5jbGF1ZGUucHJvdmlkZWRqcGFyYW1ldGVyc6F4H2NvbS5hbnRocm9waWMub3JpZ2luLWNvbmZpZGVuY2VndW5rbm93bmtkZXNjcmlwdGlvbnhmQ2xhdWRlIHByb3ZpZGVkIHRoaXMgZmlsZSBhdCB0aGUgcmVxdWVzdCBvZiBhIHVzZXIgYW5kIG1heSBoYXZlIGNyZWF0ZWQgb3IgbW9kaWZpZWQgdGhlIGZpbGUgY29udGVudHMubXNvZnR3YXJlQWdlbnShZG5hbWVmQ2xhdWRlcmFsbEFjdGlvbnNJbmNsdWRlZPUAAADIanVtYgAAAEBqdW1kY2JvcgARABCAAACqADibcRNjMnBhLmhhc2guZGF0YQAAAAAYYzJzaMVtlEXnRfo2Q0FpKtSMzlwAAACAY2JvcqVjYWxnZnNoYTI1NmNwYWRNAAAAAAAAAAAAAAAAAGRoYXNoWCA32JM4eQRuMerVht9/tzjGyn6WdR0jaPlYR7T1FUSLFWRuYW1lbmp1bWJmIG1hbmlmZXN0amV4Y2x1c2lvbnOBomVzdGFydBidZmxlbmd0aBkeBAAAAj5qdW1iAAAAJ2p1bWRjMmNsABEAEIAAAKoAOJtxA2MycGEuY2xhaW0udjIAAAACD2Nib3KlY2FsZ2ZzaGEyNTZpc2lnbmF0dXJleE1zZWxmI2p1bWJmPS9jMnBhL3VybjpjMnBhOjQ3YjBiODU4LTExMjUtNDAwNi1hMjQyLWExNTQwYmE3NjVlNC9jMnBhLnNpZ25hdHVyZWppbnN0YW5jZUlEeCx4bXA6aWlkOjVhOWQwYzZjLTAzY2ItNDBmMi05MzA5LTc2YTVkOWZkZGFhOHJjcmVhdGVkX2Fzc2VydGlvbnODomN1cmx4LXNlbGYjanVtYmY9YzJwYS5hc3NlcnRpb25zL2MycGEuaW5ncmVkaWVudC52M2RoYXNoWCA/g8NQ2NTfpwWYGG2CyIw8O/LQEuoStsqIiBCo05VQ56JjdXJseCpzZWxmI2p1bWJmPWMycGEuYXNzZXJ0aW9ucy9jMnBhLmFjdGlvbnMudjJkaGFzaFggUZWaPaIBeWxazhCpNxZatDgdtTEr/X9e+meZvWZ8c+eiY3VybHgpc2VsZiNqdW1iZj1jMnBhLmFzc2VydGlvbnMvYzJwYS5oYXNoLmRhdGFkaGFzaFggBDPWDJt27ohy1+GrJOm2T4YxBMOiW6pqsJxV2+Cowet0Y2xhaW1fZ2VuZXJhdG9yX2luZm+jZG5hbWVvQW50aHJvcGljIEZpbGVzZ3ZlcnNpb25lMS4wLjBrc3BlY1ZlcnNpb25lMi40LjAAABA4anVtYgAAAChqdW1kYzJjcwARABCAAACqADibcQNjMnBhLnNpZ25hdHVyZQAAABAIY2JvctKEWQISogEmGCFZAgowggIGMIIBjaADAgECAhRA5aAK7sI50L64g/oGQgU9Z1UTADAKBggqhkjOPQQDAzBJMRcwFQYDVQQKEw5BbnRocm9waWMsIFBCQzEuMCwGA1UEAxMlQW50aHJvcGljIENvbnRlbnQgQ3JlZGVudGlhbHMgUm9vdCBDQTAeFw0yNjA4MDcxODQzNTZaFw0yODA4MDYxOTQzNTZaMEQxFzAVBgNVBAoTDkFudGhyb3BpYywgUEJDMSkwJwYDVQQDEyBBbnRocm9waWMgQ2xhdWRlIENvbnRlbnQgU2lnbmluZzBZMBMGByqGSM49AgEGCCqGSM49AwEHA0IABJh6CmvLUBgFFNU0vUKlOVtE6djd17L5SuwX0LemFisBM3dkd/3cyjxFA3Qo5S46fX0/ihY0VZ7mfb9KF703t5OjWDBWMA4GA1UdDwEB/wQEAwIHgDAVBgNVHSUEDjAMBgorBgEEAYPoXgIBMAwGA1UdEwEB/wQCMAAwHwYDVR0jBBgwFoAUzlHiBIFOZFsj+OPEz5o+nMHXXMIwCgYIKoZIzj0EAwMDZwAwZAIwMXMdFJ4BetLLVY7ORuE9noqbbAZOZn/aArXyTwFAZfKrPzxF2vPoJNf1+UCdg1XGAjBwX1zd9WGqYkqmL5SFqw1QySjr1zJfpJM9+1rdDwSPLMOPOjKuiXjoU/pUUeG9RwmhY3BhZFkNngAAAAAAAAAAAAAAAAAAAAAAAAAAAAAAAAAAAAAAAAAAAAAAAAAAAAAAAAAAAAAAAAAAAAAAAAAAAAAAAAAAAAAAAAAAAAAAAAAAAAAAAAAAAAAAAAAAAAAAAAAAAAAAAAAAAAAAAAAAAAAAAAAAAAAAAAAAAAAAAAAAAAAAAAAAAAAAAAAAAAAAAAAAAAAAAAAAAAAAAAAAAAAAAAAAAAAAAAAAAAAAAAAAAAAAAAAAAAAAAAAAAAAAAAAAAAAAAAAAAAAAAAAAAAAAAAAAAAAAAAAAAAAAAAAAAAAAAAAAAAAAAAAAAAAAAAAAAAAAAAAAAAAAAAAAAAAAAAAAAAAAAAAAAAAAAAAAAAAAAAAAAAAAAAAAAAAAAAAAAAAAAAAAAAAAAAAAAAAAAAAAAAAAAAAAAAAAAAAAAAAAAAAAAAAAAAAAAAAAAAAAAAAAAAAAAAAAAAAAAAAAAAAAAAAAAAAAAAAAAAAAAAAAAAAAAAAAAAAAAAAAAAAAAAAAAAAAAAAAAAAAAAAAAAAAAAAAAAAAAAAAAAAAAAAAAAAAAAAAAAAAAAAAAAAAAAAAAAAAAAAAAAAAAAAAAAAAAAAAAAAAAAAAAAAAAAAAAAAAAAAAAAAAAAAAAAAAAAAAAAAAAAAAAAAAAAAAAAAAAAAAAAAAAAAAAAAAAAAAAAAAAAAAAAAAAAAAAAAAAAAAAAAAAAAAAAAAAAAAAAAAAAAAAAAAAAAAAAAAAAAAAAAAAAAAAAAAAAAAAAAAAAAAAAAAAAAAAAAAAAAAAAAAAAAAAAAAAAAAAAAAAAAAAAAAAAAAAAAAAAAAAAAAAAAAAAAAAAAAAAAAAAAAAAAAAAAAAAAAAAAAAAAAAAAAAAAAAAAAAAAAAAAAAAAAAAAAAAAAAAAAAAAAAAAAAAAAAAAAAAAAAAAAAAAAAAAAAAAAAAAAAAAAAAAAAAAAAAAAAAAAAAAAAAAAAAAAAAAAAAAAAAAAAAAAAAAAAAAAAAAAAAAAAAAAAAAAAAAAAAAAAAAAAAAAAAAAAAAAAAAAAAAAAAAAAAAAAAAAAAAAAAAAAAAAAAAAAAAAAAAAAAAAAAAAAAAAAAAAAAAAAAAAAAAAAAAAAAAAAAAAAAAAAAAAAAAAAAAAAAAAAAAAAAAAAAAAAAAAAAAAAAAAAAAAAAAAAAAAAAAAAAAAAAAAAAAAAAAAAAAAAAAAAAAAAAAAAAAAAAAAAAAAAAAAAAAAAAAAAAAAAAAAAAAAAAAAAAAAAAAAAAAAAAAAAAAAAAAAAAAAAAAAAAAAAAAAAAAAAAAAAAAAAAAAAAAAAAAAAAAAAAAAAAAAAAAAAAAAAAAAAAAAAAAAAAAAAAAAAAAAAAAAAAAAAAAAAAAAAAAAAAAAAAAAAAAAAAAAAAAAAAAAAAAAAAAAAAAAAAAAAAAAAAAAAAAAAAAAAAAAAAAAAAAAAAAAAAAAAAAAAAAAAAAAAAAAAAAAAAAAAAAAAAAAAAAAAAAAAAAAAAAAAAAAAAAAAAAAAAAAAAAAAAAAAAAAAAAAAAAAAAAAAAAAAAAAAAAAAAAAAAAAAAAAAAAAAAAAAAAAAAAAAAAAAAAAAAAAAAAAAAAAAAAAAAAAAAAAAAAAAAAAAAAAAAAAAAAAAAAAAAAAAAAAAAAAAAAAAAAAAAAAAAAAAAAAAAAAAAAAAAAAAAAAAAAAAAAAAAAAAAAAAAAAAAAAAAAAAAAAAAAAAAAAAAAAAAAAAAAAAAAAAAAAAAAAAAAAAAAAAAAAAAAAAAAAAAAAAAAAAAAAAAAAAAAAAAAAAAAAAAAAAAAAAAAAAAAAAAAAAAAAAAAAAAAAAAAAAAAAAAAAAAAAAAAAAAAAAAAAAAAAAAAAAAAAAAAAAAAAAAAAAAAAAAAAAAAAAAAAAAAAAAAAAAAAAAAAAAAAAAAAAAAAAAAAAAAAAAAAAAAAAAAAAAAAAAAAAAAAAAAAAAAAAAAAAAAAAAAAAAAAAAAAAAAAAAAAAAAAAAAAAAAAAAAAAAAAAAAAAAAAAAAAAAAAAAAAAAAAAAAAAAAAAAAAAAAAAAAAAAAAAAAAAAAAAAAAAAAAAAAAAAAAAAAAAAAAAAAAAAAAAAAAAAAAAAAAAAAAAAAAAAAAAAAAAAAAAAAAAAAAAAAAAAAAAAAAAAAAAAAAAAAAAAAAAAAAAAAAAAAAAAAAAAAAAAAAAAAAAAAAAAAAAAAAAAAAAAAAAAAAAAAAAAAAAAAAAAAAAAAAAAAAAAAAAAAAAAAAAAAAAAAAAAAAAAAAAAAAAAAAAAAAAAAAAAAAAAAAAAAAAAAAAAAAAAAAAAAAAAAAAAAAAAAAAAAAAAAAAAAAAAAAAAAAAAAAAAAAAAAAAAAAAAAAAAAAAAAAAAAAAAAAAAAAAAAAAAAAAAAAAAAAAAAAAAAAAAAAAAAAAAAAAAAAAAAAAAAAAAAAAAAAAAAAAAAAAAAAAAAAAAAAAAAAAAAAAAAAAAAAAAAAAAAAAAAAAAAAAAAAAAAAAAAAAAAAAAAAAAAAAAAAAAAAAAAAAAAAAAAAAAAAAAAAAAAAAAAAAAAAAAAAAAAAAAAAAAAAAAAAAAAAAAAAAAAAAAAAAAAAAAAAAAAAAAAAAAAAAAAAAAAAAAAAAAAAAAAAAAAAAAAAAAAAAAAAAAAAAAAAAAAAAAAAAAAAAAAAAAAAAAAAAAAAAAAAAAAAAAAAAAAAAAAAAAAAAAAAAAAAAAAAAAAAAAAAAAAAAAAAAAAAAAAAAAAAAAAAAAAAAAAAAAAAAAAAAAAAAAAAAAAAAAAAAAAAAAAAAAAAAAAAAAAAAAAAAAAAAAAAAAAAAAAAAAAAAAAAAAAAAAAAAAAAAAAAAAAAAAAAAAAAAAAAAAAAAAAAAAAAAAAAAAAAAAAAAAAAAAAAAAAAAAAAAAAAAAAAAAAAAAAAAAAAAAAAAAAAAAAAAAAAAAAAAAAAAAAAAAAAAAAAAAAAAAAAAAAAAAAAAAAAAAAAAAAAAAAAAAAAAAAAAAAAAAAAAAAAAAAAAAAAAAAAAAAAAAAAAAAAAAAAAAAAAAAAAAAAAAAAAAAAAAAAAAAAAAAAAAAAAAAAAAAAAAAAAAAAAAAAAAAAAAAAAAAAAAAAAAAAAAAAAAAAAAAAAAAAAAAAAAAAAAAAAAAAAAAAAAAAAAAAAAAAAAAAAAAAAAAAAAAAAAAAAAAAAAAAAAAAAAAAAAAAAAAAAAAAAAAAAAAAAAAAAAAAAAAAAAAAAAAAAAAAAAAAAAAAAAAAAAAAAAAAAAAAAAAAAAAAAAAAAAAAAAAAAAAAAAAAAAAAAAAAAAAAAAAAAAAAAAAAAAAAAAAAAAAAAAAAAAAAAAAAAAAAAAAAAAAAAAAAAAAAAAAAAAAAAAAAAAAAAAAAAAAAAAAAAAAAAAAAAAAAAAAAAAAAAAAAAAAAAAAAAAAAAAAAAAAAAAAAAAAAAAAAAAAAAAAAAAAAAAAAAAAAAAAAAAAAAAAAAAAAAAAAAAAAAAAAAAAAAAAAAAAAAAAAAAAAAAAAAAAAAAAAAAAAAAAAAAAAAAAAAAAAAAAAAAAAAAAAAAAAAAAAAAAAAAAAAAAAAAAAAAAAAAAAAAAAAAAAAAAAAAAAAAAAAAAAAAAAAAAAAAAAAAAAAAAAAAAAAAAAAAAAAAAAAAAAAAAAAAAAAAAAAAAAAAAAAAAAAAAAAAAAAAAAAAAAAAAAAAAAAAAAAAAAAAAAAAAAAAAAAAAAAAAAAAAAAAAAAAAAAAAAAAAAAAAAAAAAAAAAAAAAAAAAAAAAAAAAAAAAAAAAAAAAAAAAAAAAAAAAAAAAAAAAAAAAAAAAAAAAAAAAAAAAAAAAAAAAAAAAAAAAAAAAAAAAAAAAAAAAAAAAAAAAAAAAAAAAAAAAAAAAAAAAAAAAAAAAAAAAAAAAAAAAAAAAAAAAAAAAAAAAAAAAAAAAAAAAAAAAAAAAAAAAAAAAAAAAAAAAAAAAAAAAAAAAAAAAAAAAAAAAAAAAAAAAAAAAAAAAAAAAAAAAAAAAAAAAAAAAAAAAAAAAAAAAAAAAAAAAAAAAAAAAAAAAAAAAAAAAAAAAAAAAAAAAAAAAAAAAAAAAAAAAAAAAAAAAAAAAAAAAAAAAAAAAAAAAAAAAAAAAAAAAAAAAAAAAAAAAAAAAAAAAAAAAAAAAAAAAAAAAAAAAAAAAAAAAAAAAAAAAAAAAAAAAAAAAAAAAAAAAAAAAAAAAAAAAAAAAAAAAAAAAAAAAAAAAAAAAAAAAAAAAAAAAAAAAAAAAAAAAAAAAAAAAAAAAAAAAAAAAAAAAAAAAAAAAAAAAAAAAAAAAAAAAAAAAAAAAAAAAAAAAAAAAAAAAAAAAAAAAAAAAAAAAAAAAAAAAAAAAAAAAAAAAAAAAAAAAAAAAAAAAAAAAAAAAAAAAAAAAAAAAAAAAAAAAAAAAAAAAAAAAAAAAAAAAAAAAAAAAAAAAAAAAAAAAAAAAAAAAAAAAAAAAAAAAAAAAAAAAAAAAAAAAAAAAAAAAAAAAAAAAAAAAAAAAAAAAAAAAAAAAAAAAAAAAAAAAAAAAAAAAAAAAAAAAAAAAAAAAAAAAAAAAAAAAAAAAAAAAAAAAAAAAAAAAAAAAAAAAAAAAAAAAAAAAAAAAAAAAAAAAAAAAAPZYQPPulUusEpWLHcZJjpRBIDe8bJ7uxHVe9s4+l+RId+mD3i6BJZ/7FE3fs0jJO8E84jXkdApxt/bQgWlL353XUyE=</c2pa:manifest></metadata>
<path fill="#482581" fill-rule="evenodd" d="M696.17,102.33 L696.17,95.67 L695.83,93.00 L695.33,91.00 L693.67,87.50 L691.17,83.83 L687.33,79.83 L685.67,78.50 L682.33,76.50 L680.67,74.83 L680.50,73.17 L681.67,69.83 L682.83,64.83 L682.67,60.17 L680.83,53.67 L679.17,50.17 L676.33,46.33 L673.17,43.17 L670.00,40.83 L667.00,39.33 L662.67,37.67 L659.67,37.00 L656.67,37.00 L656.50,36.83 L624.83,36.83 L623.50,36.50 L622.50,35.67 L622.00,34.67 L621.83,28.17 L620.83,24.00 L619.17,20.00 L616.67,16.00 L613.50,12.67 L609.00,9.00 L605.67,7.33 L603.00,6.33 L599.00,5.83 L589.17,6.00 L585.17,7.17 L581.00,9.17 L578.00,11.33 L574.00,15.33 L572.17,18.00 L570.17,21.83 L568.50,26.83 L568.00,29.50 L568.00,41.67 L567.50,43.17 L566.83,43.67 L565.67,43.67 L562.00,41.50 L557.00,39.33 L552.67,38.00 L547.83,37.00 L536.33,36.83 L536.17,36.67 L529.67,36.67 L529.50,36.83 L502.50,36.67 L502.33,36.83 L498.67,36.83 L498.50,37.00 L494.67,37.17 L488.00,39.00 L485.50,40.00 L480.50,42.67 L473.83,47.33 L472.67,47.33 L472.00,47.00 L471.00,45.67 L470.83,43.67 L471.33,41.17 L471.00,38.00 L470.50,36.33 L468.00,31.83 L468.17,30.50 L469.33,28.67 L470.50,26.00 L470.83,24.67 L470.83,20.50 L470.33,18.67 L469.17,16.17 L466.67,13.17 L463.83,11.33 L460.33,10.17 L457.33,10.17 L453.50,11.33 L450.00,13.00 L448.50,12.83 L445.33,11.17 L442.17,10.17 L439.67,10.00 L436.50,10.67 L433.67,12.00 L432.33,13.00 L429.50,16.00 L428.33,18.50 L428.00,20.17 L428.00,24.67 L428.83,27.67 L430.50,30.67 L430.50,32.33 L428.17,36.67 L427.67,38.50 L427.17,39.33 L426.00,40.17 L424.83,40.17 L420.33,38.17 L417.83,37.33 L416.00,37.00 L405.33,37.00 L401.33,38.17 L397.00,40.33 L394.17,42.33 L391.33,45.00 L388.00,49.50 L386.00,53.00 L385.17,55.33 L384.00,61.17 L384.00,64.83 L383.67,66.17 L382.50,68.00 L379.33,70.67 L377.50,71.50 L376.17,71.50 L374.83,71.00 L371.17,68.50 L369.50,66.67 L368.83,64.67 L368.83,58.50 L368.50,56.83 L367.33,53.50 L365.67,50.17 L363.50,47.00 L358.67,42.17 L357.17,41.00 L351.33,38.17 L348.83,37.33 L347.00,37.00 L337.83,37.00 L335.50,37.50 L331.17,39.17 L328.33,40.67 L326.33,42.17 L324.83,42.83 L323.33,42.67 L319.67,40.33 L316.00,38.50 L312.17,37.17 L301.00,37.00 L298.50,37.50 L296.17,38.33 L292.33,40.33 L289.17,43.00 L284.67,47.83 L283.33,49.83 L282.00,52.50 L280.50,56.50 L280.00,58.67 L279.83,71.17 L279.33,72.67 L278.50,73.50 L277.00,74.00 L269.67,74.00 L268.17,73.50 L267.00,72.00 L266.67,61.17 L266.00,59.00 L265.50,56.00 L264.83,54.00 L262.83,49.83 L258.67,44.50 L256.17,42.17 L253.33,40.17 L250.00,38.50 L246.00,37.17 L244.83,37.00 L234.67,37.17 L232.33,37.83 L227.83,39.83 L224.00,42.33 L221.67,42.50 L219.00,40.83 L214.00,38.50 L209.83,37.17 L207.00,36.83 L151.50,36.83 L151.33,37.00 L149.00,37.00 L144.00,38.17 L140.00,39.50 L136.00,41.33 L129.83,45.67 L124.17,51.17 L123.50,51.50 L122.33,51.50 L120.83,50.50 L116.83,46.50 L110.83,42.17 L107.67,40.50 L100.83,38.00 L97.33,37.17 L93.17,37.00 L93.00,36.83 L45.83,36.83 L40.83,37.33 L37.50,38.17 L31.17,40.33 L28.67,41.67 L22.67,45.67 L17.50,50.50 L13.33,55.33 L11.00,59.00 L9.83,61.33 L7.33,67.67 L6.00,73.83 L6.00,77.17 L5.83,77.33 L6.00,87.50 L6.83,91.00 L7.00,92.83 L8.83,98.33 L12.00,104.50 L13.33,106.67 L17.33,111.67 L19.67,114.00 L24.33,117.67 L28.83,120.33 L31.83,121.67 L37.50,123.67 L38.50,124.17 L39.17,124.83 L39.33,126.83 L37.83,130.67 L37.00,134.50 L37.00,142.33 L37.67,145.50 L39.00,149.17 L40.00,151.17 L42.67,155.00 L46.50,158.83 L48.67,160.33 L52.33,162.17 L55.83,163.50 L57.50,163.83 L95.33,163.83 L99.33,163.00 L105.83,160.83 L109.50,159.00 L112.33,157.17 L115.83,154.50 L119.67,150.67 L121.67,148.17 L125.17,142.83 L128.00,136.33 L128.83,133.00 L129.17,130.33 L129.67,128.83 L129.83,126.00 L130.17,124.83 L131.00,124.00 L132.83,123.83 L136.50,124.83 L146.17,124.83 L150.50,123.67 L153.67,122.17 L158.00,119.17 L160.50,116.67 L163.67,112.17 L165.67,107.67 L166.67,104.50 L167.00,101.17 L167.67,98.17 L167.67,91.00 L168.00,89.83 L169.00,88.83 L170.33,88.33 L173.17,88.33 L173.33,88.17 L186.67,88.17 L186.83,88.33 L206.67,88.17 L209.50,87.83 L212.00,87.17 L213.33,87.17 L214.00,87.50 L214.67,88.33 L215.00,89.50 L215.17,92.67 L215.67,94.17 L216.33,97.83 L217.50,101.00 L220.17,106.50 L223.33,111.17 L225.83,114.17 L228.33,116.67 L233.00,120.17 L238.67,123.17 L246.50,125.67 L250.17,126.00 L253.67,126.83 L291.17,126.83 L295.17,126.00 L298.33,125.67 L305.50,123.67 L313.00,120.00 L318.83,115.50 L321.50,112.83 L325.50,107.33 L327.67,103.67 L329.17,102.67 L329.83,102.67 L331.17,103.33 L338.83,109.83 L342.83,112.50 L345.33,114.67 L354.67,120.83 L359.67,123.17 L364.00,124.67 L365.83,125.00 L368.33,125.83 L370.50,126.00 L372.67,126.50 L381.17,126.67 L385.17,125.83 L393.33,123.33 L399.67,120.17 L413.67,110.33 L417.83,106.67 L420.00,105.17 L421.50,104.50 L422.33,104.67 L423.17,105.50 L423.83,107.17 L424.50,110.00 L425.83,112.67 L429.50,118.00 L431.83,120.33 L434.33,122.17 L437.50,124.00 L441.00,125.33 L447.83,126.83 L451.00,126.83 L456.33,125.67 L460.17,124.33 L462.50,123.17 L466.67,120.33 L468.00,119.67 L469.17,119.50 L470.50,120.00 L474.83,123.00 L478.00,124.50 L481.17,125.50 L485.83,126.17 L492.17,126.00 L494.33,125.50 L498.67,124.00 L502.67,121.67 L504.67,120.17 L508.00,116.83 L510.33,113.67 L512.83,108.67 L513.83,104.83 L514.17,90.33 L515.00,89.00 L515.83,88.50 L517.17,88.17 L527.17,88.17 L528.67,88.67 L529.50,89.50 L530.00,91.00 L530.00,104.83 L531.33,110.50 L534.00,115.83 L535.67,118.17 L538.83,121.33 L542.17,123.67 L546.33,125.83 L548.67,126.67 L554.50,127.67 L558.50,127.67 L562.33,126.83 L564.17,126.67 L566.33,126.00 L570.17,124.00 L576.17,119.67 L578.17,119.83 L581.00,121.67 L584.83,123.67 L587.33,124.50 L589.17,124.83 L600.33,124.83 L605.33,123.50 L610.33,120.83 L615.50,116.00 L617.67,113.00 L620.00,108.50 L621.00,105.33 L621.50,104.50 L622.17,104.00 L623.17,104.00 L624.00,104.50 L634.00,114.67 L638.83,119.17 L642.50,121.50 L645.83,123.17 L650.50,124.67 L655.33,125.67 L661.83,125.67 L662.00,125.83 L672.83,125.67 L675.00,125.00 L678.00,124.50 L681.33,123.33 L684.67,121.50 L687.50,119.50 L689.33,117.67 L692.50,113.67 L693.50,112.00 L695.50,107.33Z"/>
<path fill="#BFF851" fill-rule="evenodd" d="M317.00,56.50 L315.50,54.33 L314.00,52.83 L312.33,51.67 L310.33,50.67 L306.83,49.83 L303.67,50.00 L301.33,50.67 L298.50,52.17 L295.67,54.83 L293.67,58.33 L292.67,61.67 L292.50,62.83 L292.50,84.17 L292.00,85.83 L291.00,86.83 L289.50,87.33 L285.33,87.33 L285.17,87.50 L256.67,87.33 L255.17,86.83 L254.33,86.00 L253.83,84.50 L253.83,63.17 L253.17,59.67 L252.17,57.17 L250.50,54.67 L248.50,52.67 L245.67,51.00 L242.33,50.00 L238.83,50.00 L236.33,50.67 L234.33,51.67 L232.67,52.83 L230.50,55.17 L228.50,59.00 L227.67,62.50 L227.50,86.00 L228.17,91.17 L229.83,96.83 L231.50,100.17 L233.50,103.17 L238.33,108.00 L242.50,110.67 L246.83,112.50 L249.50,113.17 L254.00,113.67 L292.17,113.67 L297.50,113.00 L300.00,112.33 L303.50,110.83 L306.33,109.17 L309.17,107.00 L312.83,103.17 L314.83,100.33 L316.50,97.17 L318.33,91.17 L318.83,86.00 L318.67,85.00 L318.83,62.50 L318.17,59.00Z M478.33,64.00 L477.00,66.67 L475.83,70.00 L474.83,74.83 L474.67,76.50 L474.67,82.50 L474.83,82.67 L474.67,100.50 L475.33,103.83 L477.00,107.50 L479.00,110.00 L482.33,112.33 L484.83,113.17 L487.50,113.50 L492.00,113.00 L494.33,112.00 L496.50,110.50 L498.33,108.67 L499.50,107.00 L500.50,105.00 L501.17,103.00 L501.67,100.00 L501.67,79.00 L502.17,77.33 L503.17,76.33 L504.83,75.83 L539.50,75.83 L540.83,76.17 L542.33,77.33 L542.83,78.50 L542.83,101.33 L543.33,104.33 L544.33,107.17 L546.17,110.17 L548.17,112.17 L551.17,113.83 L554.83,114.83 L558.17,114.83 L561.33,114.00 L564.33,112.50 L566.67,110.33 L568.67,107.17 L569.33,105.50 L570.00,102.00 L570.00,74.67 L569.33,70.50 L568.00,66.67 L566.67,64.00 L563.33,59.33 L560.83,56.83 L557.83,54.50 L553.17,52.00 L548.67,50.50 L543.83,49.67 L499.83,49.67 L495.50,50.50 L492.67,51.50 L489.17,53.17 L486.83,54.67 L484.50,56.50 L481.67,59.33Z M447.67,49.67 L444.83,50.33 L442.83,51.33 L440.33,53.17 L438.67,55.00 L437.50,56.83 L436.17,60.33 L435.83,62.33 L435.83,100.83 L436.17,102.83 L437.83,107.00 L439.17,109.00 L440.83,110.67 L442.50,111.83 L445.00,113.00 L447.33,113.50 L451.83,113.50 L454.50,112.83 L457.67,111.00 L459.83,108.83 L461.67,105.83 L462.67,103.00 L463.00,101.00 L463.00,62.50 L462.67,60.17 L462.00,58.00 L460.33,55.00 L458.17,52.67 L455.67,51.00 L453.17,50.00 L451.67,49.67Z M424.00,60.50 L423.00,57.50 L421.33,54.83 L419.00,52.50 L415.50,50.50 L413.00,49.83 L410.33,49.67 L407.83,50.00 L404.33,51.50 L402.83,52.50 L401.00,54.17 L399.33,56.33 L398.17,58.67 L397.50,60.83 L397.17,63.00 L397.17,71.00 L396.83,72.33 L396.17,73.50 L391.00,78.33 L382.67,84.67 L378.83,87.00 L377.83,87.33 L375.67,87.33 L372.83,86.00 L364.50,80.00 L357.33,73.83 L356.67,72.83 L356.17,71.00 L355.83,60.50 L355.00,58.00 L353.17,55.00 L350.83,52.67 L347.83,50.83 L345.17,50.00 L343.67,49.83 L340.67,50.00 L338.33,50.67 L336.33,51.67 L334.50,53.00 L332.33,55.33 L330.67,58.33 L330.00,60.33 L329.50,63.00 L329.50,71.50 L329.67,71.67 L329.83,77.50 L330.33,79.67 L331.83,83.67 L334.33,87.50 L336.50,90.17 L340.33,94.00 L345.67,98.67 L349.83,102.00 L357.00,107.17 L360.67,109.50 L364.00,111.17 L366.83,112.33 L369.17,113.00 L375.00,113.83 L379.17,113.83 L383.00,113.33 L386.17,112.50 L391.67,110.00 L395.50,107.67 L404.33,101.33 L413.17,94.00 L417.17,90.00 L421.50,84.33 L422.83,81.67 L423.83,78.50 L424.17,76.17 L424.17,61.83Z M129.83,104.83 L131.33,107.50 L133.33,109.67 L134.67,110.67 L137.33,112.00 L140.33,112.67 L142.33,112.67 L144.17,112.33 L147.33,111.00 L148.83,110.00 L151.00,107.83 L152.00,106.50 L153.33,104.00 L154.00,102.00 L154.50,97.83 L154.50,78.83 L154.67,78.00 L155.50,76.67 L157.50,75.83 L174.33,75.83 L174.50,76.00 L205.67,75.83 L209.33,74.83 L212.50,73.00 L214.67,70.83 L215.83,69.00 L216.67,67.00 L217.33,64.00 L217.33,61.83 L216.83,59.50 L215.50,56.17 L214.50,54.67 L211.83,52.17 L209.00,50.67 L207.00,50.00 L205.00,49.67 L153.00,49.67 L149.00,50.50 L146.00,51.50 L143.00,52.83 L140.50,54.33 L138.33,56.00 L135.00,59.50 L132.00,64.00 L129.83,69.50 L128.67,75.50 L128.67,100.17 L128.83,101.50Z M30.50,56.00 L27.67,58.50 L25.67,60.67 L22.17,65.83 L21.00,68.17 L19.50,72.17 L18.83,74.67 L18.33,78.67 L18.50,85.17 L19.00,88.17 L20.17,92.00 L23.50,98.67 L25.00,100.83 L28.50,104.50 L33.00,108.00 L36.83,110.00 L40.83,111.33 L45.67,112.50 L47.00,112.67 L88.67,112.67 L90.50,113.33 L91.50,114.83 L91.67,122.33 L91.17,124.00 L89.67,125.17 L87.67,125.50 L61.83,125.50 L58.17,126.33 L55.00,128.00 L53.33,129.50 L51.50,132.00 L50.50,134.00 L49.83,136.33 L49.67,139.00 L50.17,142.00 L51.33,144.67 L52.67,146.67 L54.67,148.67 L56.67,150.00 L59.00,151.00 L61.50,151.50 L89.17,151.67 L89.33,151.50 L92.17,151.50 L94.83,151.17 L100.33,149.67 L104.17,147.67 L106.83,145.83 L109.00,144.00 L112.33,140.00 L113.83,137.67 L115.33,134.67 L116.83,129.83 L117.33,126.17 L117.33,75.17 L116.33,69.00 L115.17,65.83 L112.67,61.50 L109.50,57.67 L105.83,54.50 L101.17,51.83 L96.83,50.33 L93.17,49.67 L46.17,49.67 L42.33,50.33 L37.00,52.17 L33.67,53.83Z M43.83,80.50 L44.50,78.67 L45.83,77.17 L47.33,76.33 L49.50,75.83 L52.17,75.83 L52.33,76.00 L88.33,75.83 L90.17,76.33 L91.33,77.67 L91.67,78.83 L91.67,83.33 L91.17,84.83 L90.33,85.67 L88.83,86.17 L83.83,86.17 L83.67,86.33 L49.00,86.17 L47.33,85.83 L46.33,85.33 L44.83,84.00 L44.00,82.33Z M584.33,23.83 L582.83,26.17 L582.17,27.67 L581.33,31.50 L581.33,100.00 L582.17,103.67 L583.50,106.33 L584.67,108.00 L586.33,109.67 L588.00,110.83 L591.33,112.33 L592.83,112.67 L596.83,112.67 L599.00,112.17 L602.00,110.83 L603.67,109.67 L606.00,107.17 L607.83,103.67 L608.50,101.50 L608.83,99.33 L608.83,79.17 L609.50,77.33 L610.00,76.83 L611.83,76.17 L616.00,76.33 L618.33,77.50 L631.50,93.00 L638.83,101.17 L645.50,107.83 L648.50,110.17 L651.50,111.83 L655.33,112.83 L672.00,112.83 L674.50,112.17 L677.17,110.83 L679.00,109.50 L680.33,108.17 L681.83,106.17 L682.83,104.17 L683.50,101.50 L683.50,98.50 L683.17,96.67 L682.17,94.00 L680.50,91.50 L677.83,89.00 L676.17,88.00 L674.00,87.17 L669.50,86.33 L664.00,86.33 L663.00,86.17 L661.50,85.50 L656.33,80.50 L654.83,78.33 L654.83,77.17 L655.67,76.33 L656.67,76.00 L658.67,75.83 L661.00,75.17 L663.17,74.17 L664.83,73.00 L667.00,70.67 L668.67,67.83 L669.17,66.17 L669.50,63.67 L669.00,59.67 L667.50,56.50 L666.00,54.50 L664.67,53.17 L663.33,52.17 L660.50,50.67 L658.33,50.00 L656.17,49.67 L643.67,49.67 L643.50,49.83 L613.00,49.67 L612.67,49.83 L610.67,49.50 L609.33,48.33 L608.83,46.83 L608.83,31.17 L608.50,28.83 L607.00,25.33 L605.83,23.67 L603.67,21.50 L602.00,20.33 L599.00,19.17 L595.33,18.67 L593.00,18.83 L591.33,19.17 L588.83,20.17 L586.33,21.83Z M437.83,19.00 L436.67,20.17 L436.00,21.67 L436.00,23.17 L436.50,24.33 L438.17,26.00 L442.83,27.83 L444.17,29.17 L444.67,30.17 L444.83,32.50 L444.17,34.00 L442.67,35.50 L441.17,36.17 L439.00,36.67 L437.83,37.33 L436.67,38.50 L436.00,40.17 L436.00,41.33 L436.83,43.17 L437.67,44.00 L439.33,44.83 L441.50,44.83 L442.33,44.50 L443.83,43.17 L444.50,41.83 L445.17,39.33 L445.83,38.17 L447.67,36.67 L448.67,36.33 L450.33,36.33 L451.83,37.00 L453.00,38.00 L454.00,39.67 L454.50,41.67 L455.17,43.00 L456.50,44.33 L457.83,44.83 L459.83,44.83 L461.50,44.00 L462.33,43.00 L462.83,41.83 L462.83,39.67 L462.33,38.50 L460.83,37.00 L457.50,35.83 L456.33,35.17 L454.67,33.17 L454.33,32.00 L454.33,31.00 L455.00,29.33 L456.00,28.17 L457.50,27.33 L460.00,26.67 L461.50,25.83 L462.17,25.17 L463.00,23.50 L463.00,21.67 L462.00,19.67 L461.17,19.00 L459.33,18.33 L458.33,18.33 L456.83,18.83 L455.00,20.67 L454.00,23.50 L453.00,25.17 L451.17,26.50 L449.33,26.83 L447.33,26.17 L446.17,25.17 L445.00,23.17 L444.17,20.67 L442.83,19.17 L441.00,18.33 L439.33,18.33Z"/>
</svg>